<svg fill="none" height="1024" viewBox="0 0 1024 1024" width="1024" xmlns="http://www.w3.org/2000/svg"><path d="m0 0h1024v1024h-1024z" fill="#000"/><g clip-rule="evenodd" fill-rule="evenodd" transform="matrix(1.6384 0 0 1.6384 102.4 102.4)"><path d="m249.998 0c-138.073 0-249.998 111.93-249.998 249.998 0 138.077 111.925 250.002 249.998 250.002 138.072 0 250.002-111.925 250.002-250.002 0-138.068-111.93-249.998-250.002-249.998zm-146.535 249.998c0-80.924 65.606-146.535 146.535-146.535 80.928 0 146.534 65.611 146.534 146.535 0 80.933-65.606 146.534-146.534 146.534-80.929 0-146.535-65.601-146.535-146.534z" fill="#06f"/><path d="m396.192 259.497c.2-3.145.339-6.304.339-9.498 0-80.929-65.605-146.535-146.529-146.535-3.179 0-6.324.14-9.453.339-.847.055-1.69.125-2.527.19-2.571.209-5.118.483-7.649.822-.583.075-1.176.134-1.759.224-3.085.449-6.14.997-9.165 1.64-.528.114-1.046.244-1.574.363-2.552.574-5.078 1.211-7.575 1.914-.389.11-.792.184-1.181.294v.04c-12.917 3.747-25.096 9.204-36.273 16.141v-.02c-.304.189-.583.399-.882.588-1.994 1.256-3.952 2.556-5.876 3.907-.588.408-1.171.822-1.749 1.241-1.879 1.355-3.727 2.76-5.541 4.201-.399.324-.813.632-1.211.956-2.223 1.804-4.391 3.668-6.503 5.602-.185.169-.359.348-.544.518-1.863 1.724-3.672 3.498-5.441 5.312-.514.528-1.017 1.062-1.52 1.59-1.49 1.579-2.95 3.189-4.371 4.834-.453.523-.917 1.041-1.36 1.569-3.608 4.291-6.977 8.786-10.081 13.475-.404.613-.793 1.236-1.186 1.854-1.142 1.779-2.243 3.578-3.309 5.412-.409.702-.818 1.4-1.216 2.113-1.156 2.068-2.268 4.166-3.324 6.299-.194.393-.409.777-.603 1.176-1.226 2.526-2.377 5.103-3.463 7.709-.265.633-.504 1.276-.758 1.913-.797 2.004-1.555 4.022-2.267 6.065-.294.837-.578 1.685-.857 2.532-.668 2.033-1.291 4.091-1.869 6.164-.195.703-.409 1.395-.598 2.103-.723 2.751-1.381 5.531-1.949 8.342-.099.508-.174 1.032-.274 1.545-.443 2.317-.832 4.649-1.161 7.001-.129.922-.239 1.844-.349 2.766-.254 2.078-.458 4.171-.623 6.274-.069.887-.149 1.774-.204 2.666-.174 2.935-.289 5.885-.289 8.861 0 2.815.1 5.606.254 8.381.075 1.366.199 2.711.309 4.062.105 1.231.204 2.457.339 3.678.204 1.958.458 3.891.738 5.82.039.264.079.528.124.787 12.713 84.054 94.812 139.104 177.246 120.148 1.51-.344 3.025-.673 4.515-1.062.812-.214 1.62-.463 2.432-.692 2.008-.558 4.002-1.151 5.975-1.794.344-.115.698-.2 1.042-.314 2.252-.269 4.619-.499 7.146-.663 14.616-.952 54.308 28.534 71.824 25.525 4.39-20.771-19.121-55.325-7.644-75.348 5.352-9.349 11.641-16.221 17.018-29.77 1.395-3.509 2.621-7.156 3.742-10.894.125-.354.209-.727.334-1.086.872-2.596 1.679-5.218 2.407-7.874.11-.398.234-.792.339-1.191.817-3.079 1.54-6.199 2.158-9.358.024-.125.059-.25.084-.374.359-1.381.723-2.771 1.092-4.161.049-.997.074-1.984.109-2.98.045-.324.06-.658.105-.982.359-2.646.643-5.322.857-8.013.065-.783.13-1.56.179-2.347z" fill="#fff"/></g></svg>