<svg fill="none" height="257" viewBox="0 0 257 257" width="257" xmlns="http://www.w3.org/2000/svg"><path d="m54.2049 122.679c.0003-1.432.2827-2.849.8313-4.171.5485-1.322 1.3522-2.522 2.365-3.531 1.0127-1.01 2.2146-1.81 3.5366-2.353s2.738-.819 4.1669-.812l18.0715.059c2.8814 0 5.6446 1.147 7.682 3.188s3.182 4.809 3.182 7.696v68.455c2.0344-.605 4.6473-1.25 7.5068-1.924 1.986-.467 3.756-1.593 5.022-3.195 1.267-1.602 1.956-3.586 1.956-5.63v-84.9158c0-2.8868 1.144-5.6553 3.182-7.6967 2.037-2.0414 4.8-3.1886 7.682-3.1892h18.107c2.882.0006 5.645 1.1478 7.682 3.1892 2.038 2.0414 3.182 4.8099 3.182 7.6967v78.8098s4.534-1.837 8.95-3.705c1.64-.695 3.04-1.858 4.025-3.345s1.51-3.231 1.512-5.016v-93.9532c0-2.8862 1.144-5.6542 3.181-7.6952 2.037-2.0411 4.8-3.188 7.681-3.1885h18.107c2.882 0 5.645 1.1466 7.682 3.1877 2.038 2.0411 3.182 4.8095 3.182 7.696v77.3682c15.699-11.398 31.608-25.106 44.233-41.589 1.831-2.393 3.043-5.2023 3.527-8.1782.484-2.9758.226-6.0255-.753-8.8769-5.843-16.8446-15.133-32.2815-27.273-45.323-12.141-13.0415-26.866-23.4002-43.232-30.4134-16.366-7.01313-34.014-10.526233-51.813-10.31447-17.799.21177-35.3586 4.14376-51.554 11.54427-16.1953 7.4006-30.6703 18.1067-42.4984 31.4334-11.8282 13.3266-20.7491 28.9802-26.19179 45.9591-5.44274 16.9792-7.28747 34.9092-5.41614 52.6432 1.87132 17.734 7.4175 34.882 16.28363 50.345 1.5445 2.668 3.8167 4.838 6.5498 6.257 2.733 1.418 5.8135 2.026 8.8794 1.752 3.425-.301 7.6894-.729 12.7595-1.326 2.2071-.251 4.2449-1.306 5.725-2.966 1.4801-1.659 2.2992-3.806 2.301-6.031v-67.941" fill="#fff"/><path d="m54.2049 122.679c.0003-1.432.2827-2.849.8313-4.171.5485-1.322 1.3522-2.522 2.365-3.531 1.0127-1.01 2.2146-1.81 3.5366-2.353s2.738-.819 4.1668-.812l18.0716.059c2.8814 0 5.6446 1.147 7.682 3.188s3.182 4.809 3.182 7.696v68.455c2.0344-.605 4.6473-1.25 7.5068-1.924 1.986-.467 3.756-1.593 5.022-3.195 1.267-1.602 1.956-3.586 1.956-5.63v-84.9158c0-2.8868 1.144-5.6553 3.182-7.6967 2.037-2.0414 4.8-3.1886 7.682-3.1892h18.107c2.882.0006 5.645 1.1478 7.682 3.1892 2.038 2.0414 3.182 4.8099 3.182 7.6967v78.8098s4.534-1.837 8.95-3.705c1.64-.695 3.04-1.858 4.025-3.345s1.51-3.231 1.512-5.016v-93.9532c0-2.8862 1.144-5.6542 3.181-7.6952 2.037-2.0411 4.8-3.188 7.681-3.1885h18.107c2.882 0 5.645 1.1466 7.682 3.1877 2.038 2.0411 3.182 4.8095 3.182 7.696v77.3682c15.699-11.398 31.608-25.106 44.233-41.589 1.831-2.393 3.043-5.2023 3.527-8.1782.484-2.9758.226-6.0255-.753-8.8769-5.843-16.8446-15.133-32.2815-27.273-45.323-12.141-13.0415-26.866-23.4002-43.232-30.4134-16.366-7.01313-34.014-10.526233-51.813-10.31447-17.799.21177-35.3586 4.14376-51.554 11.54427-16.1953 7.4006-30.6703 18.1067-42.4984 31.4334-11.8282 13.3266-20.7491 28.9802-26.19179 45.9591-5.44274 16.9792-7.28747 34.9092-5.41614 52.6432 1.87132 17.734 7.4175 34.882 16.28363 50.345 1.5445 2.668 3.8167 4.838 6.5498 6.257 2.733 1.418 5.8135 2.026 8.8794 1.752 3.425-.301 7.6894-.729 12.7595-1.326 2.2071-.251 4.2449-1.306 5.725-2.966 1.4801-1.659 2.2992-3.806 2.301-6.031v-67.941" stroke="#fff"/><path d="m53.8086 232.475c19.0865 13.911 41.6424 22.261 65.1724 24.126 23.529 1.865 47.115-2.828 68.147-13.56 21.033-10.731 38.692-27.082 51.023-47.244 12.332-20.163 18.855-43.35 18.848-66.996 0-2.95-.136-5.869-.332-8.772-46.744 69.843-133.052 102.494-202.8542 112.436" fill="#0052ff"/></svg>